# xmcd
#
# Track frame offsets:
#	150
#	11369
#	27142
#	41612
#	59898
#	75191
#	89580
#	106169
#	124364
#	139536
#	157827
#	170157
#	186856
#
# Disc length: 2639 seconds
# Revision: 0
# Processed by: cddbd v1.5.2PL0 Copyright (c) Steve Scherf et al.
# Submitted via: dBpowerAMP V12.0
#
DISCID=a20a4d0d
DTITLE=Snyder Family Band - Stages
DYEAR=2011
DGENRE=Country
TTITLE0=Stages
TTITLE1=Goose Down Pillow
TTITLE2=The Perfect Sacrifice
TTITLE3=Original Untitled
TTITLE4=Daddy's Gone
TTITLE5=Creekslide
TTITLE6=I Am A Pilgrim
TTITLE7=Call Me the Breeze
TTITLE8=Wren's Waltz
TTITLE9=Lord Don't Forsake Me
TTITLE10=Sarah Joy
TTITLE11=Angelina Baker
TTITLE12=The Glendy Burke
EXTD=
EXTT0=
EXTT1=
EXTT2=
EXTT3=
EXTT4=
EXTT5=
EXTT6=
EXTT7=
EXTT8=
EXTT9=
EXTT10=
EXTT11=
EXTT12=
PLAYORDER=
